<?xml version="1.0" encoding="UTF-8" standalone="no"?>
<svg
   viewBox="0 0 640 640"
   version="1.1"
   id="svg4"
   sodipodi:docname="shopping.svg"
   inkscape:version="1.2.2 (b0a8486541, 2022-12-01)"
   xmlns:inkscape="http://www.inkscape.org/namespaces/inkscape"
   xmlns:sodipodi="http://sodipodi.sourceforge.net/DTD/sodipodi-0.dtd"
   xmlns="http://www.w3.org/2000/svg"
   xmlns:svg="http://www.w3.org/2000/svg">
  <defs
     id="defs8" />
  <sodipodi:namedview
     id="namedview6"
     pagecolor="#ffffff"
     bordercolor="#666666"
     borderopacity="1.0"
     inkscape:showpageshadow="2"
     inkscape:pageopacity="0.0"
     inkscape:pagecheckerboard="0"
     inkscape:deskcolor="#d1d1d1"
     showgrid="false"
     inkscape:zoom="1.33125"
     inkscape:cx="286.57277"
     inkscape:cy="320.37559"
     inkscape:window-width="1920"
     inkscape:window-height="1032"
     inkscape:window-x="0"
     inkscape:window-y="25"
     inkscape:window-maximized="1"
     inkscape:current-layer="svg4" />
  <!--!Font Awesome Free 7.1.0 by @fontawesome - https://fontawesome.com License - https://fontawesome.com/license/free Copyright 2025 Fonticons, Inc.-->
  <path
     d="M24 48C10.7 48 0 58.7 0 72C0 85.3 10.7 96 24 96L69.3 96C73.2 96 76.5 98.8 77.2 102.6L129.3 388.9C135.5 423.1 165.3 448 200.1 448L456 448C469.3 448 480 437.3 480 424C480 410.7 469.3 400 456 400L200.1 400C188.5 400 178.6 391.7 176.5 380.3L171.4 352L475 352C505.8 352 532.2 330.1 537.9 299.8L568.9 133.9C572.6 114.2 557.5 96 537.4 96L124.7 96L124.3 94C119.5 67.4 96.3 48 69.2 48L24 48zM208 576C234.5 576 256 554.5 256 528C256 501.5 234.5 480 208 480C181.5 480 160 501.5 160 528C160 554.5 181.5 576 208 576zM432 576C458.5 576 480 554.5 480 528C480 501.5 458.5 480 432 480C405.5 480 384 501.5 384 528C384 554.5 405.5 576 432 576z"
     id="path2"
     style="fill:#b5b5b5;fill-opacity:1" />
</svg>
